M48
; DRILL file KiCad 10.0.4 date 2026-08-05T23:33:07
; FORMAT={-:-/ absolute / metric / decimal}
; #@! TF.CreationDate,2026-08-05T23:33:07+07:00
; #@! TF.GenerationSoftware,Kicad,Pcbnew,10.0.4
; #@! TF.FileFunction,Plated,1,2,PTH
FMAT,2
METRIC
; #@! TA.AperFunction,Plated,PTH,ComponentDrill
T1C1.000
%
G90
G05
T1
X86.23Y-100.0
X86.23Y-102.54
X86.23Y-105.08
X86.23Y-107.62
X86.23Y-110.16
X86.23Y-112.7
X86.23Y-115.24
X86.23Y-117.78
X86.23Y-120.32
X86.23Y-122.86
X86.23Y-125.4
X86.23Y-127.94
X86.23Y-130.48
X86.23Y-133.02
X86.23Y-135.56
X88.77Y-100.0
X88.77Y-102.54
X88.77Y-105.08
X88.77Y-107.62
X88.77Y-110.16
X88.77Y-112.7
X88.77Y-115.24
X88.77Y-117.78
X88.77Y-120.32
X88.77Y-122.86
X88.77Y-125.4
X88.77Y-127.94
X88.77Y-130.48
X88.77Y-133.02
X88.77Y-135.56
X92.5Y-100.0
X92.5Y-102.54
X92.5Y-105.08
X92.5Y-107.62
X92.5Y-110.16
X92.5Y-112.7
X92.5Y-115.24
X92.5Y-117.78
X92.5Y-120.32
X92.5Y-122.86
X92.5Y-125.4
X92.5Y-127.94
X92.5Y-130.48
X92.5Y-133.02
X92.5Y-135.56
X95.04Y-100.0
X95.04Y-102.54
X95.04Y-105.08
X95.04Y-107.62
X95.04Y-110.16
X95.04Y-112.7
X95.04Y-115.24
X95.04Y-117.78
X95.04Y-120.32
X95.04Y-122.86
X95.04Y-125.4
X95.04Y-127.94
X95.04Y-130.48
X95.04Y-133.02
X95.04Y-135.56
X100.0Y-100.0
X100.0Y-102.54
X100.0Y-105.08
X100.0Y-107.62
X100.0Y-110.16
X100.0Y-112.7
X100.0Y-115.24
X100.0Y-117.78
X100.0Y-120.32
X100.0Y-122.86
X100.0Y-125.4
X100.0Y-127.94
X100.0Y-130.48
X100.0Y-133.02
X100.0Y-135.56
X125.25Y-100.0
X125.25Y-102.54
X125.25Y-105.08
X125.25Y-107.62
X125.25Y-110.16
X125.25Y-112.7
X125.25Y-115.24
X125.25Y-117.78
X125.25Y-120.32
X125.25Y-122.86
X125.25Y-125.4
X125.25Y-127.94
X125.25Y-130.48
X125.25Y-133.02
X125.25Y-135.56
X130.96Y-100.0
X130.96Y-102.54
X130.96Y-105.08
X130.96Y-107.62
X130.96Y-110.16
X130.96Y-112.7
X130.96Y-115.24
X130.96Y-117.78
X130.96Y-120.32
X130.96Y-122.86
X130.96Y-125.4
X130.96Y-127.94
X130.96Y-130.48
X130.96Y-133.02
X130.96Y-135.56
X133.5Y-100.0
X133.5Y-102.54
X133.5Y-105.08
X133.5Y-107.62
X133.5Y-110.16
X133.5Y-112.7
X133.5Y-115.24
X133.5Y-117.78
X133.5Y-120.32
X133.5Y-122.86
X133.5Y-125.4
X133.5Y-127.94
X133.5Y-130.48
X133.5Y-133.02
X133.5Y-135.56
X137.46Y-100.0
X137.46Y-102.54
X137.46Y-105.08
X137.46Y-107.62
X137.46Y-110.16
X137.46Y-112.7
X137.46Y-115.24
X137.46Y-117.78
X137.46Y-120.32
X137.46Y-122.86
X137.46Y-125.4
X137.46Y-127.94
X137.46Y-130.48
X137.46Y-133.02
X137.46Y-135.56
X140.0Y-100.0
X140.0Y-102.54
X140.0Y-105.08
X140.0Y-107.62
X140.0Y-110.16
X140.0Y-112.7
X140.0Y-115.24
X140.0Y-117.78
X140.0Y-120.32
X140.0Y-122.86
X140.0Y-125.4
X140.0Y-127.94
X140.0Y-130.48
X140.0Y-133.02
X140.0Y-135.56
M30
